<?xml version="1.0" encoding="UTF-8"?>
<svg enable-background="new 0 0 3045.5 1972.7" version="1.1" viewBox="0 0 3045.5 1972.7" xml:space="preserve" xmlns="http://www.w3.org/2000/svg">
<style type="text/css">
	.st0{fill-rule:evenodd;clip-rule:evenodd;fill:#FFFFFF;}
	.st1{fill:#FFFFFF;}
</style>
	<path class="st0" d="m2091.2 1137.5c0 118.2-213.4 214-476.6 214s-476.6-95.8-476.6-214c0-100.1 153.2-184.1 359.9-207.5-241.8 21.4-423.8 113.9-423.8 224.9 0 126.8 237.5 229.5 530.4 229.5 173.3 0 327.1-35.9 424-91.5 5.1 123.7-96.5 590.3-670.8 593.6 483.3 108.4 820.8-279.2 769-690.9-0.7-14.2-35.5-138.1-35.5-58.1z"/>
	<path class="st0" d="m1598.1 1266.8s-263.3-266.7-152.2-527.5c111.1-225.1 226.1-381.7 116.4-646.8 280.1 476.4-236.5 689.6 35.8 1174.3z"/>
	<path class="st0" d="m1735.7 1221.2s-200.7-203.2-115.9-402c84.6-171.7 172.2-291 88.6-493.1 213.5 363.2-180.2 525.6 27.3 895.1z"/>
	<path class="st0" d="m2188.1 1484c-98.6-67.7-50.3-291.3 114.3-232.1 130.8 47 133.2 289.1-24.5 348.7-46.1 17.4-98.3 18.6-145.1 32.4-61 4.7-126.5 102.8-52.6 140.5-82.3 7.4-77.6-170.6 44.2-204.9 473.1-110.6 0.8-419.2 63.7-84.6z"/>
	<path class="st1" d="m190.1 1709.2l130.7-16.5c5.5-4.1 17.9-9.6 24.1-9.6 12.4 0 30.9 8.3 30.9 30.9 0 26.1-14.4 38.5-28.2 38.5-5.5 0-13.8-1.4-19.9-3.5l-144.4 18.6c-6.9 1.4-19.9 4.1-29.6 4.1-23.4 0-39.2-10.3-39.2-31.6 0-11.7 4.1-19.9 9.6-24.1v-341.7c-2.1-4.1-5.5-11.7-5.5-18.6 0-28.2 21.3-37.8 41.3-37.8 17.9 0 37.1 8.2 37.1 36.4 0 6.9-4.1 14.5-6.9 20v334.9z"/>
	<path class="st1" d="m494 1515.3v196.7c3.4 2.8 8.9 11 8.9 19.3 0 23.4-28.9 33.7-50.2 33.7-17.9 0-30.9-12.4-30.9-32.3 0-12.4 5.5-19.9 8.2-23.4v-191.3c-4.1-4.1-6.2-11.7-6.2-17.9 0-19.2 1.4-39.9 43.3-39.9 15.8 0 34.4 17.9 33.7 32.3 0.1 11.8-5.4 18.7-6.8 22.8z"/>
	<path class="st1" d="m623.3 1412.2c-2.7-3.4-4.1-6.2-4.1-17.2 0-18.6 17.9-24.1 43.3-24.1 14.4 0 30.9 2.7 30.9 20.6 0 5.5-2.1 11.7-6.2 17.2v41.9l86.6-13.8c3.4-3.4 7.6-5.5 13.1-5.5 16.5 0 25.4 13.8 25.4 27.5 0 22-9.6 33-24.1 33-4.8 0-8.9-0.7-11-2.8l-90.1 14.4v185.7c0 11 3.4 19.3 11.7 19.3 13.7 0 67.4-30.3 95.6-65.3-0.7-15.1 9.6-26.8 26.1-26.8 27.5 0 35.1 13.8 35.1 33 0 26.8-116.9 121-178.8 121-33.7 0-53.6-24.8-53.6-57.8v-198.7l-44.7 6.9c-3.4 3.4-7.6 5.5-13.8 6.2-16.5-0.7-27.5-11.7-27.5-32.3 0-17.2 12.4-29.6 27.5-29.6 4.8 0 9.6 2.1 11.7 4.1l46.8-7.6v-49.3z"/>
	<path class="st1" d="m1153.4 1540.7c0 30.9-21.3 59.1-180.8 87.3l-31.6 5.5c-3.4 11-4.8 23.4-4.8 37.1 0 34.4 17.9 48.1 47.4 48.1 47.4 0 87.3-27.5 99.7-46.1-2.1-15.8 11.7-30.3 34.4-30.3 25.4 0 30.9 16.5 30.9 30.3 0 19.3-59.8 99.7-172.6 99.7-58.4 0-103.1-25.5-103.1-96.3 0-127.9 90.1-220 180.2-220 77.7 0.2 100.3 57.9 100.3 84.7zm-200.1 44c121.7-21.3 138.9-31.6 138.9-41.2 0-16.5-11.7-35.1-41.9-35.1-39.2 0-76.3 32.3-97 76.3z"/>
	<path class="st1" d="m1216 1501.5l-5.5-17.9c0-13.1 17.9-24.7 39.9-24.7 20.6 0 33.7 8.9 33.7 22.7 0 4.8 0.7 10.3-4.1 15.8v24.1h0.7c37.8-34.4 77-61.2 110-61.2 21.3 0 42.6 20.6 42.6 83.9 0 19.3-11 31.6-34.4 31.6-19.9 0-31.6-6.9-31.6-18.6 0-6.2 1.4-12.4 3.4-17.9 0-8.2-2.8-15.1-8.3-15.1-11 0-47.4 23.4-82.5 64.6v125.8c4.1 4.1 8.3 12.4 8.3 19.3 0 20.6-11.7 30.9-48.8 30.9-22 0-32.3-8.9-32.3-26.8 0-6.9 4.1-13.8 9-17.2v-219.3z"/>
	<path class="st1" d="m1649.9 1528.4c0-17.9-6.9-26.8-24.7-26.8-37.8 0-69.5 13.1-94.9 29.6 1.4 5.5-8.9 19.3-28.9 19.3-16.5 0-28.9-18.6-28.9-32.3 0-13.1 16.5-30.9 30.9-28.2 35.8-22.7 83.9-37.8 145.8-37.8 35.1 0 62.6 22.7 62.6 61.9v210.4c3.4 2.8 5.5 9.6 5.5 16.5 0 20.6-24.1 24.7-45.4 24.7-22.7 0-28.9-9.6-28.9-22 0-6.2 2.7-11 5.5-16.5v-30.9h-1.4c-48.8 53.6-96.3 77.7-153.3 77.7-35.1 0-63.3-19.9-63.3-55 0-60.5 75-138.9 219.3-155.4v-35.2zm-1.4 77.7c-91.5 11-154.7 66-154.7 97 0 11.7 9.6 15.8 22.7 15.8 50.9 0 132-59.8 132-91.5v-21.3z"/>
	<path class="st1" d="m2066.9 831.4c0 19.3-12.4 33.7-39.9 33.7-15.1 0-18.6-8.9-22-17.2-4.1-8.3-9-17.2-32.3-17.2-24.1 0-44.7 12.4-64.6 34.4-23.4 23.4-48.1 62.6-48.1 109.3 0 41.9 21.3 66.7 62.6 66.7 15.8 0 30.3-6.2 44-14.4 15.1-8.9 31.6-24.1 40.6-41.3 4.1-18.6 8.3-32.3 30.3-32.3 26.1 0 33.7 18.6 33.7 28.9 0 7.6-20.6 50.9-59.8 79.1-29.6 23.4-61.2 35.1-103.8 35.1-68.1 0-110.7-46.8-110.7-111.4 0-79.1 30.3-116.2 70.8-158.2 19.3-22 66.7-48.8 103.8-48.8 52.8 0 95.4 24.1 95.4 53.6z"/>
	<path class="st1" d="m2313.8 850c0-17.9-6.9-26.8-24.8-26.8-37.8 0-69.5 13.1-94.9 29.6 1.4 5.5-8.9 19.3-28.9 19.3-16.5 0-28.9-18.6-28.9-32.3 0-13.1 16.5-30.9 30.9-28.2 35.8-22.7 83.9-37.8 145.8-37.8 35.1 0 62.6 22.7 62.6 61.9v210.3c3.4 2.8 5.5 9.6 5.5 16.5 0 20.6-24.1 24.7-45.4 24.7-22.7 0-28.9-9.6-28.9-22 0-6.2 2.7-11 5.5-16.5v-30.9h-1.4c-48.8 53.6-96.3 77.7-153.3 77.7-35.1 0-63.3-19.9-63.3-55 0-60.5 74.9-138.9 219.4-155.4v-35.1zm-1.4 77.7c-91.5 11-154.7 66-154.7 97 0 11.7 9.6 15.8 22.7 15.8 50.9 0 132-59.8 132-91.5v-21.3z"/>
	<path class="st1" d="m2491.9 861.7l-35.1 5.5c-3.4 2.8-7.6 4.8-12.4 4.8-9.6 0-23.4-6.2-23.4-33 0-13.1 8.9-28.9 19.9-28.9 5.5 0 11 2.1 14.4 3.4l36.4-6.2c0-122.4 19.3-183.6 97.6-183.6 37.8 0 86.6 34.4 86.6 57.8 0 13.8-9.6 33-28.9 33-15.8 0-26.8-11.7-26.1-22-4.8-8.3-18.6-15.1-34.4-15.1-21.3 0-30.9 26.8-30.9 119.6l76.3-12.4c4.8-2.1 8.9-7.6 15.8-7.6 17.2 0 27.5 13.1 27.5 28.2 0 19.9-7.6 35.1-22 35.1-4.8 0-11.7-2.1-14.4-3.4l-83.2 13.8v190.5c3.4 6.2 6.2 13.1 6.2 19.3 0 17.9-15.1 26.1-36.4 26.1-26.8 0-37.8-8.9-37.8-28.2 0-4.1 2.1-8.9 4.1-13.1v-183.6z"/>
	<path class="st1" d="m2949.1 862.4c0 30.9-21.3 59.1-180.8 87.3l-31.6 5.5c-3.4 11-4.8 23.4-4.8 37.1 0 34.4 17.9 48.1 47.4 48.1 47.4 0 87.3-27.5 99.7-46.1-2.1-15.8 11.7-30.3 34.4-30.3 25.4 0 30.9 16.5 30.9 30.3 0 19.3-59.8 99.7-172.6 99.7-58.4 0-103.1-25.4-103.1-96.3 0-127.9 90.1-220 180.2-220 77.6 0.1 100.3 57.8 100.3 84.7zm-200.1 44c121.7-21.3 138.9-31.6 138.9-41.3 0-16.5-11.7-35.1-42-35.1-39.1 0-76.3 32.4-96.9 76.4z"/>
	<path class="st1" d="m442 1439.7s-37.9-27.8-35-83c0 0 0-42.1 43.7-56.1 0 0-10.1 35.5 2.3 82.2 0.1 0 8.8 53.3-11 56.9z"/>
	<path class="st1" d="m471.8 1302.1s37.9 27.8 35 83c0 0 0 42.1-43.7 56.1 0 0 10.1-35.5-2.3-82.2-0.1 0-8.8-53.4 11-56.9z"/>
</svg>
